<svg width="256" height="199" version="1.1" viewBox="0 0 256 199" xmlns="http://www.w3.org/2000/svg" xmlns:xlink="http://www.w3.org/1999/xlink">
	<defs>
		<symbol id="logo" viewBox="0 0 256 199" >
			<path d="m135 154 12.1-6.99-3.11-5.38a21.6 21.4 0 0 0 4.2-7.11h6.12v-14h-6.12a21.6 21.4 0 0 0-4.2-7.1l3.11-5.39-12.1-6.99-3.18 5.51a21.6 21.4 0 0 0-4.03-0.386 21.6 21.4 0 0 0-4.03 0.389l-3.18-5.51-12.1 6.99 3.11 5.38a21.6 21.4 0 0 0-4.2 7.11h-6.12v14h6.12a21.6 21.4 0 0 0 4.2 7.1l-3.11 5.39 12.1 6.99 3.18-5.51a21.6 21.4 0 0 0 4.03 0.386 21.6 21.4 0 0 0 4.03-0.389zm66.9-120 12.1 6.99-3.11 5.38a21.6 21.4 0 0 1 4.2 7.11h6.12v14h-6.12a21.6 21.4 0 0 1-4.2 7.1l3.11 5.39-12.1 6.99-3.18-5.51a21.6 21.4 0 0 1-4.03 0.386 21.6 21.4 0 0 1-4.03-0.389l-3.18 5.51-12.1-6.99 3.11-5.38a21.6 21.4 0 0 1-4.2-7.11h-6.12v-14h6.12a21.6 21.4 0 0 1 4.2-7.1l-3.11-5.39 12.1-6.99 3.18 5.51a21.6 21.4 0 0 1 4.03-0.386 21.6 21.4 0 0 1 4.03 0.389zm-141-34.5c-15.7 3.31e-4 -31.3 5.94-43.2 17.8-11.9 11.9-17.9 27.6-17.9 43.2v138h27.6l2e-3 -138c0-8.6 3.21-17.1 9.81-23.7 13.2-13.2 34.2-13.2 47.4 0 13.2 13.2 13.2 34.2 0 47.4-23.7 23.7-23.7 62.7 2e-3 86.4 23.7 23.7 62.7 23.7 86.4 0 23.7-23.7 23.7-62.7 0-86.4-13.2-13.2-13.2-34.2 0-47.4 13.2-13.2 34.2-13.2 47.4 0 6.6 6.6 9.81 15.1 9.81 23.7v138h27.6v-138c1e-5 -15.6-6.02-31.3-17.9-43.2-23.7-23.7-62.7-23.7-86.4 0-23.7 23.7-23.7 62.7 0 86.4 13.2 13.2 13.2 34.2 0 47.4-13.2 13.2-34.2 13.2-47.4-2e-3 -13.2-13.2-13.2-34.2-2e-3 -47.4 23.7-23.7 23.7-62.7 0-86.4-11.9-11.9-27.5-17.8-43.2-17.8zm-7.21 34.5-12.1 6.99 3.11 5.38a21.6 21.4 0 0 0-4.2 7.11h-6.12v14h6.12a21.6 21.4 0 0 0 4.2 7.1l-3.11 5.39 12.1 6.99 3.18-5.51a21.6 21.4 0 0 0 4.03 0.386 21.6 21.4 0 0 0 4.03-0.389l3.18 5.51 12.1-6.99-3.11-5.38a21.6 21.4 0 0 0 4.2-7.11h6.12v-14h-6.12a21.6 21.4 0 0 0-4.2-7.1l3.11-5.39-12.1-6.99-3.18 5.51a21.6 21.4 0 0 0-4.03-0.386 21.6 21.4 0 0 0-4.03 0.389z"/>
		</symbol>
	</defs>
	<use xlink:href="#logo" fill="#445e85"/>
</svg>
