<svg width="256" height="256" version="1.1" viewBox="0 0 256 256" xmlns="http://www.w3.org/2000/svg">
	<path d="m128 28.144-124.41 65.439 7.3125 3.8457 18.24 9.5937v19.477c-9.8635 3.2008-17.078 12.513-17.078 23.387 0 5.1619 1.6297 9.9704 4.3926 13.943-2.8219 10.299-4.3926 23.086-4.3926 37.088v7.5h49.154v-7.5c0-0.42601-0.0147-0.83994-0.0176-1.2637 25.27 2.688 48.288 12.824 66.801 28.203v-2e-3c21.759-18.075 49.733-28.938 80.283-28.938h7.5v-7.5c0-25.063-6.5782-48.648-18.094-69.047l54.723-28.785zm0 15.385 95.164 50.055-95.164 50.057-83.859-44.109v-0.0371h-0.0684l-11.236-5.9102 25.471-13.396 67.508 20.57 4.373-14.348-53.004-16.152zm-83.859 71.385 14.172 7.4551c-1.7647 3.1298-3.414 6.3342-4.9414 9.6074-2.6184-2.448-5.7536-4.3482-9.2305-5.4766zm140.27 14.441c9.3152 16.371 15.016 35.03 16.127 54.955-26.865 1.4726-51.742 10.493-72.535 24.967-19.496-13.572-42.588-22.325-67.537-24.58-0.60146-6.3602-1.5556-12.292-2.8281-17.646 0.5514-2.8226 1.1837-5.6144 1.9199-8.3652 0.51527-1.3245 0.91247-2.7041 1.1914-4.125 2.7011-8.8585 6.3592-17.294 10.857-25.201l56.398 29.666zm-147.77 10.955c5.3783 0 9.5762 4.1979 9.5762 9.5762 0 5.3783-4.1979 9.5781-9.5762 9.5781-5.3783 0-9.5781-4.1998-9.5781-9.5781 0-5.3783 4.1999-9.5762 9.5781-9.5762zm-7.0039 33.121c2.2237 0.66949 4.574 1.0332 7.0039 1.0332 2.4294 0 4.7788-0.36398 7.002-1.0332 1.1535 5.8414 1.9718 12.655 2.3223 19.986h-18.65c0.35052-7.3315 1.1685-14.145 2.3223-19.986z"/>
</svg>
