<svg width="256" height="256" version="1.1" viewBox="0 0 256 256" xmlns="http://www.w3.org/2000/svg">
	<path d="m197.51 10.977c-12.9-7.448-28.63-9.9935-44.096-5.8494-23.814 6.381-40.226 26.815-42.743 49.994-7.5828-1.9155-14.918-3.1652-21.862-3.723-21.444-1.7224-40.563 3.1133-49.255 18.168-8.6917 15.054-3.3207 34.032 8.8928 51.742 0.32962 0.47795 0.68559 0.95587 1.0261 1.4336-5.1452 4.869-9.6837 10.542-13.401 16.981-20.787 36.004-8.3922 82.262 27.612 103.05 36.004 20.787 82.262 8.3922 103.05-27.612 3.7172-6.4383 6.3544-13.206 8.0009-20.096 0.5861 0.0563 1.18 0.12641 1.7607 0.17306 21.444 1.7224 40.563-3.116 49.254-18.17 8.6917-15.054 3.3214-34.03-8.8921-51.739-3.9545-5.734-8.7128-11.459-14.163-17.067 18.82-13.769 28.314-38.202 21.932-62.019-4.1441-15.466-14.215-27.817-27.116-35.265zm-7.4531 12.909c9.5486 5.5129 16.984 14.687 20.079 26.238 6.1901 23.102-7.4061 46.651-30.508 52.841-11.46 3.0706-21.233 9.3999-28.555 17.708-3.634-3.1792-7.6173-6.06-11.953-8.563-4.3352-2.503-8.8219-4.5123-13.392-6.0698 3.5342-10.495 4.1291-22.124 1.0585-33.583-6.1901-23.102 7.4061-46.651 30.508-52.841 11.551-3.095 23.214-1.2433 32.762 4.2696zm-3.1309 5.5987c-17.836-10.298-40.862-4.1277-51.159 13.708l12.99 7.5c6.2442-10.815 19.854-14.462 30.669-8.2177zm1.9666 86.238c6.2555 6.0578 11.523 12.186 15.616 18.12 10.535 15.275 12.675 28.059 8.2495 35.723-4.4251 7.6644-16.566 12.203-35.062 10.717-18.496-1.4857-41.964-9.0006-65.045-22.326-23.081-13.326-41.322-29.892-51.856-45.167-10.535-15.275-12.676-28.06-8.2512-35.724 4.4251-7.6644 16.568-12.202 35.064-10.716 7.186 0.5772 15.129 2.082 23.503 4.4716 0.30648 1.8395 0.69736 3.6804 1.1896 5.5176 3.095 11.551 1.2166 23.166-4.3102 32.739-1.6407 2.8417-3.6058 5.4897-5.8493 7.897l-9.8e-4 2e-3c10.02 0.12576 20.157 2.7407 29.481 8.1241 9.3251 5.3839 16.658 12.857 21.777 21.472 0.96309-3.148 2.2749-6.1747 3.9163-9.0176 5.5268-9.5726 14.647-17.007 26.198-20.102 1.8399-0.493 3.6325-1.0752 5.3812-1.7307zm-29.013 77.021c-1.3427 5.1021-3.3675 10.118-6.1376 14.916-16.734 28.984-53.575 38.855-82.559 22.122-28.984-16.734-38.855-53.575-22.122-82.559 2.7702-4.7981 6.1031-9.057 9.8511-12.77 1.5577 1.7225 3.2009 3.433 4.8904 5.1351-3.2881 3.2525-6.2107 6.9721-8.6302 11.163-14.697 25.455-5.9175 58.225 19.538 72.921 25.455 14.697 58.226 5.9158 72.922-19.539 2.4193-4.1903 4.1936-8.5785 5.366-13.052 2.315 0.61081 4.6143 1.1765 6.8812 1.6634zm-21.189-6.1283c-0.85194 3.4263-2.1896 6.7963-4.0489 10.017-10.643 18.435-33.997 24.692-52.432 14.049-18.435-10.643-24.691-33.996-14.047-52.431 1.8592-3.2203 4.1092-6.0624 6.651-8.5122 8.9301 7.5539 19.112 14.728 30.337 21.209 11.226 6.4815 22.532 11.711 33.54 15.668z"/>
</svg>
