<svg width="16" height="16" version="1.1" viewBox="0 0 256 256" xmlns="http://www.w3.org/2000/svg">
	<path id="fondamental" d="m197.51 10.977c-12.9-7.448-28.63-9.9935-44.096-5.8494-23.814 6.381-40.226 26.815-42.743 49.994-7.5828-1.9155-14.918-3.1652-21.862-3.723-21.444-1.7224-40.563 3.1133-49.255 18.168-8.6917 15.054-3.3207 34.032 8.8928 51.742 0.32962 0.47795 0.68559 0.95587 1.0261 1.4336-5.1452 4.869-9.6837 10.542-13.401 16.981-20.787 36.004-8.3922 82.262 27.612 103.05 36.004 20.787 82.262 8.3922 103.05-27.612 3.7172-6.4383 6.3544-13.206 8.0009-20.096 0.5861 0.0563 1.18 0.12641 1.7607 0.17306 21.444 1.7224 40.563-3.116 49.254-18.17 8.6917-15.054 3.3214-34.03-8.8921-51.739-3.9545-5.734-8.7128-11.459-14.163-17.067 18.82-13.769 28.314-38.202 21.932-62.019-4.1441-15.466-14.215-27.817-27.116-35.265zm-7.4531 12.909c9.5486 5.5129 16.984 14.687 20.079 26.238 6.1901 23.102-7.4061 46.651-30.508 52.841-11.46 3.0706-21.233 9.3999-28.555 17.708-3.634-3.1792-7.6173-6.06-11.953-8.563-4.3352-2.503-8.8219-4.5123-13.392-6.0698 3.5342-10.495 4.1291-22.124 1.0585-33.583-6.1901-23.102 7.4061-46.651 30.508-52.841 11.551-3.095 23.214-1.2433 32.762 4.2696zm-3.1309 5.5987c-17.836-10.298-40.862-4.1277-51.159 13.708l12.99 7.5c6.2442-10.815 19.854-14.462 30.669-8.2177zm1.9666 86.238c6.2555 6.0578 11.523 12.186 15.616 18.12 10.535 15.275 12.675 28.059 8.2495 35.723-4.4251 7.6644-16.566 12.203-35.062 10.717-18.496-1.4857-41.964-9.0006-65.045-22.326-23.081-13.326-41.322-29.892-51.856-45.167-10.535-15.275-12.676-28.06-8.2512-35.724 4.4251-7.6644 16.568-12.202 35.064-10.716 7.186 0.5772 15.129 2.082 23.503 4.4716 0.30648 1.8395 0.69736 3.6804 1.1896 5.5176 3.095 11.551 1.2166 23.166-4.3102 32.739-1.6407 2.8417-3.6058 5.4897-5.8493 7.897l-9.8e-4 2e-3c10.02 0.12576 20.157 2.7407 29.481 8.1241 9.3251 5.3839 16.658 12.857 21.777 21.472 0.96309-3.148 2.2749-6.1747 3.9163-9.0176 5.5268-9.5726 14.647-17.007 26.198-20.102 1.8399-0.493 3.6325-1.0752 5.3812-1.7307zm-29.013 77.021c-1.3427 5.1021-3.3675 10.118-6.1376 14.916-16.734 28.984-53.575 38.855-82.559 22.122-28.984-16.734-38.855-53.575-22.122-82.559 2.7702-4.7981 6.1031-9.057 9.8511-12.77 1.5577 1.7225 3.2009 3.433 4.8904 5.1351-3.2881 3.2525-6.2107 6.9721-8.6302 11.163-14.697 25.455-5.9175 58.225 19.538 72.921 25.455 14.697 58.226 5.9158 72.922-19.539 2.4193-4.1903 4.1936-8.5785 5.366-13.052 2.315 0.61081 4.6143 1.1765 6.8812 1.6634zm-21.189-6.1283c-0.85194 3.4263-2.1896 6.7963-4.0489 10.017-10.643 18.435-33.997 24.692-52.432 14.049-18.435-10.643-24.691-33.996-14.047-52.431 1.8592-3.2203 4.1092-6.0624 6.651-8.5122 8.9301 7.5539 19.112 14.728 30.337 21.209 11.226 6.4815 22.532 11.711 33.54 15.668z"/>
	<path id="intermediaire" d="m128 2.875c-21.792 0-43.584 8.2914-60.168 24.875-33.167 33.167-33.167 87.171 0 120.34 10.9 10.9 17.424 24.438 19.65 38.545l-11.754 2.6484 3.2969 14.633 9.3359-2.1035v4.8301l-12.633 2.8457 3.2969 14.633 9.3359-2.1035v4.8301l-12.633 2.8457 3.2969 14.633 73.613-16.584v4.8301l-26.287 5.9219 3.2969 14.633 50.623-11.404-3.2969-14.633-9.3359 2.1035v-4.8301l12.633-2.8457-3.2969-14.633-9.3359 2.1035v-4.8301l12.633-2.8457-3.2969-14.633-8.7441 1.9707c1.9029-14.829 8.5191-29.142 19.938-40.561 33.167-33.167 33.167-87.171 0-120.34-16.584-16.584-38.376-24.875-60.168-24.875zm0 14.906c17.922 0 35.845 6.8587 49.562 20.576 27.435 27.435 27.435 71.688 0 99.123-15.177 15.177-23.427 34.742-24.721 54.635l-49.48 11.146v-4.8301l26.287-5.9219-3.2969-14.633-24.225 5.457c-2.8584-16.795-10.753-32.919-23.688-45.854-27.435-27.435-27.435-71.688 0-99.123 13.717-13.717 31.639-20.576 49.561-20.576zm-16.119 9.9824c-16.568 4.4395-29.851 15.223-37.814 29.016l12.99 7.5c6.0556-10.489 16.054-18.637 28.707-22.027zm40.758 179.77v4.8301l-49.277 11.102v-4.8301z"/>
	<path id="avance" d="m128 28.144-124.41 65.439 7.3125 3.8457 18.24 9.5937v19.477c-9.8635 3.2008-17.078 12.513-17.078 23.387 0 5.1619 1.6297 9.9704 4.3926 13.943-2.8219 10.299-4.3926 23.086-4.3926 37.088v7.5h49.154v-7.5c0-0.42601-0.0147-0.83994-0.0176-1.2637 25.27 2.688 48.288 12.824 66.801 28.203v-2e-3c21.759-18.075 49.733-28.938 80.283-28.938h7.5v-7.5c0-25.063-6.5782-48.648-18.094-69.047l54.723-28.785zm0 15.385 95.164 50.055-95.164 50.057-83.859-44.109v-0.0371h-0.0684l-11.236-5.9102 25.471-13.396 67.508 20.57 4.373-14.348-53.004-16.152zm-83.859 71.385 14.172 7.4551c-1.7647 3.1298-3.414 6.3342-4.9414 9.6074-2.6184-2.448-5.7536-4.3482-9.2305-5.4766zm140.27 14.441c9.3152 16.371 15.016 35.03 16.127 54.955-26.865 1.4726-51.742 10.493-72.535 24.967-19.496-13.572-42.588-22.325-67.537-24.58-0.60146-6.3602-1.5556-12.292-2.8281-17.646 0.5514-2.8226 1.1837-5.6144 1.9199-8.3652 0.51527-1.3245 0.91247-2.7041 1.1914-4.125 2.7011-8.8585 6.3592-17.294 10.857-25.201l56.398 29.666zm-147.77 10.955c5.3783 0 9.5762 4.1979 9.5762 9.5762 0 5.3783-4.1979 9.5781-9.5762 9.5781-5.3783 0-9.5781-4.1998-9.5781-9.5781 0-5.3783 4.1999-9.5762 9.5781-9.5762zm-7.0039 33.121c2.2237 0.66949 4.574 1.0332 7.0039 1.0332 2.4294 0 4.7788-0.36398 7.002-1.0332 1.1535 5.8414 1.9718 12.655 2.3223 19.986h-18.65c0.35052-7.3315 1.1685-14.145 2.3223-19.986z"/>
	<path id="expert" d="m 24.956066,7.8148719 a 8.0133296,8.0133296 0 0 0 -7.3709,5.6807571 c -4.39778,14.512679 -4.39778,30.197861 0,44.710537 2.74733,9.066206 7.22699,17.50688 13.00471,24.929606 -8.47284,15.759584 -13.349,33.733088 -13.349,52.879558 0,61.95276 50.22264,112.17541 112.175404,112.17541 61.95275,0 112.17539,-50.22265 112.17539,-112.17541 0,-20.0585 -5.29793,-38.872174 -14.5227,-55.164379 4.95549,-6.863945 8.87342,-14.485716 11.34586,-22.644785 4.39778,-14.512677 4.39778,-30.197858 0,-44.710537 a 8.0133296,8.0133296 0 0 0 -7.85603,-5.6807571 8.0133296,8.0133296 0 0 0 -6.40063,3.4428821 c -5.95213,8.565252 -13.46921,16.066685 -22.03446,22.018807 -4.25949,2.959985 -8.84237,5.409455 -13.56809,7.574343 -17.17322,-10.728351 -37.3975,-17.010973 -59.13934,-17.010973 -22.26043,0 -42.931144,6.560443 -60.360004,17.762149 -5.31315,-2.306308 -10.44968,-5.027482 -15.19565,-8.325519 -8.56524,-5.952122 -16.06668,-13.453555 -22.0188,-22.018807 a 8.0133296,8.0133296 0 0 0 -6.88576,-3.4428821 z m 5.43036,26.5884511 c 4.40708,4.426763 9.19918,8.465537 14.33491,12.034442 12.92455,8.981458 27.85838,14.961253 43.41164,17.370912 a 8.0133296,8.0133296 0 1 0 2.70735,-15.790314 c 11.804954,-5.220467 24.832094,-8.153375 38.575954,-8.153375 13.38488,0 26.10449,2.783108 37.66827,7.746488 -0.5616,0.09846 -1.11123,0.272674 -1.67449,0.359939 a 8.0133578,8.0133578 0 1 0 2.45696,15.837263 c 15.55326,-2.40966 30.48709,-8.389455 43.41163,-17.370912 5.13632,-3.569304 9.92744,-7.607093 14.33492,-12.034442 0.15066,6.480011 -0.66541,12.984588 -2.53522,19.154951 -4.46508,14.73477 -14.94594,27.824113 -28.34119,35.414751 a 8.0137893,8.0137893 0 1 0 7.90299,13.943674 c 4.64825,-2.634 8.9662,-5.774704 12.94211,-9.295782 6.33782,12.794552 9.98436,27.146542 9.98436,42.394412 0,53.10237 -43.04798,96.15035 -96.15034,96.15035 -53.102384,0 -96.150354,-43.04798 -96.150354,-96.15035 0,-14.56167 3.43715,-28.25099 9.24885,-40.610374 3.39188,2.79454 7.00085,5.333354 10.84509,7.511744 a 8.0137893,8.0137893 0 1 0 7.90297,-13.943676 c -13.39525,-7.590637 -23.87611,-20.679979 -28.34119,-35.41475 -1.86963,-6.169743 -2.68566,-12.675586 -2.53522,-19.154951 z m 48.41946,67.511817 c -6.41592,11.11281 -2.61512,25.32117 8.49767,31.73712 11.11278,6.41603 25.336794,2.61508 31.752774,-8.49765 z m 101.220774,0 -40.23478,23.23947 c 6.41597,11.11273 20.62434,14.91368 31.73711,8.49765 11.1128,-6.41595 14.9136,-20.62431 8.49767,-31.73712 z M 64.783956,159.95902 a 8.0133296,8.0133296 0 0 0 -5.86855,12.91082 c 16.44352,21.92468 43.095014,35.25826 70.500874,35.25826 27.40585,0 54.073,-13.33358 70.5165,-35.25826 a 8.0133296,8.0133296 0 0 0 -6.11894,-12.91082 8.0133296,8.0133296 0 0 0 -6.69797,3.30205 c -13.2764,17.70187 -35.57225,28.84197 -57.69959,28.84197 -22.12735,0 -44.407554,-11.1401 -57.683954,-28.84197 a 8.0133296,8.0133296 0 0 0 -6.94837,-3.30205 z"/>
	<path id="exemples" d="M 72,48 C 49.90861,48 32,65.90861 32,88 v 72 c 0,22.09139 17.90861,40 40,40 h 112 c 22.09139,0 40,-17.90861 40,-40 V 88 C 224,65.90861 206.09139,48 184,48 Z m 0,16 h 112 c 13.25483,0 24,10.74516 24,24 v 72 c 0,13.25483 -10.74517,24 -24,24 H 72 C 58.74516,184 48,173.25483 48,160 V 88 C 48,74.74516 58.90159,61.96963 72,64 Z m 8,16 v 88 H 96 V 80 Z"/>
	<path id="concis" d="M 56 48 C 33.978378 48 16 65.978378 16 88 L 16 152 C 16 174.02162 33.978378 192 56 192 L 65.394531 192 C 68.722772 201.27864 77.641877 208 88 208 L 168 208 C 178.35812 208 187.27723 201.27864 190.60547 192 L 200 192 C 222.02162 192 240 174.02162 240 152 L 240 88 C 240 65.978378 222.02162 48 200 48 L 56 48 z M 56 64 L 200 64 C 213.43438 64 224 74.565622 224 88 L 224 152 C 224 165.43438 213.43438 176 200 176 L 192 176 L 192 168 C 192 154.84238 181.15762 144 168 144 L 88 144 C 74.842378 144 64 154.84238 64 168 L 64 176 L 56 176 C 42.565622 176 32 165.43438 32 152 L 32 88 C 32 74.565622 42.565622 64 56 64 z M 104 80 L 104 96 L 99.314453 96 C 96.078682 96.00032 93.161733 97.949845 91.923828 100.93945 C 90.686314 103.92846 91.370794 107.36859 93.658203 109.65625 L 122.34375 138.3418 C 123.84404 139.84209 125.87827 140.68555 128 140.68555 C 130.12173 140.68555 132.15596 139.84209 133.65625 138.3418 L 162.3418 109.65625 C 164.62921 107.36859 165.31369 103.92846 164.07617 100.93945 C 162.83827 97.949845 159.92132 96.00032 156.68555 96 L 152 96 L 152 80 L 104 80 z M 88 160 L 168 160 C 172.57038 160 176 163.42962 176 168 L 176 184 C 176 188.57038 172.57038 192 168 192 L 88 192 C 83.429622 192 80 188.57038 80 184 L 80 168 C 80 163.42962 83.429622 160 88 160 z "/>
	<path id="compact" d="M 64,48 C 46.272,48 32,62.272 32,80 v 32 H 96 V 48 Z m 48,0 v 64 H 224 V 80 C 224,62.272 209.728,48 192,48 Z M 48,64 H 80 V 96 H 48 Z m 80,0 h 80 v 32 h -80 z m -96,64 v 48 c 0,17.728 14.272,32 32,32 h 32 v -80 z m 80,0 v 80 h 80 c 17.728,0 32,-14.272 32,-32 v -48 z m -64,16 h 32 v 48 H 48 Z m 80,0 h 80 v 48 h -80 z"/>
	<path id="options" d="m178.2 131.56a50.247 50.247 0 0 1-50.247 50.247 50.247 50.247 0 0 1-50.247-50.247 50.247 50.247 0 0 1 50.247-50.247 50.247 50.247 0 0 1 50.247 50.247zm17.66 7e-5a67.907 67.907 0 0 1-67.907 67.907 67.907 67.907 0 0 1-67.907-67.907 67.907 67.907 0 0 1 67.907-67.907 67.907 67.907 0 0 1 67.907 67.907zm-67.907-128.83a128.83 128.83 0 0 0-15.113 1.0512l-10.034 29.719a101.31 101.31 0 0 0-35.824 17.265l-29.617-10.73a128.83 128.83 0 0 0-18.738 23.67l16.985 26.384a101.31 101.31 0 0 0-8.8363 38.761l-26.773 16.416a128.83 128.83 0 0 0 6.7055 29.459l31.169 3.1662a101.31 101.31 0 0 0 24.86 31.197l-3.8444 31.058a128.83 128.83 0 0 0 27.219 13.114l21.893-22.378a101.31 101.31 0 0 0 19.949 1.9917 101.31 101.31 0 0 0 19.873-2.0692l21.956 22.443a128.83 128.83 0 0 0 27.246-12.975l-3.876-31.303a101.31 101.31 0 0 0 24.789-31.069l31.229-3.1725a128.83 128.83 0 0 0 6.8319-29.4l-26.831-16.452a101.31 101.31 0 0 0-8.9027-38.749l17.056-26.493a128.83 128.83 0 0 0-18.833-23.581l-29.602 10.725a101.31 101.31 0 0 0-35.77-17.225l-10.076-29.843a128.83 128.83 0 0 0-15.09-0.98006z"/>
	<path id="menu" d="m32 0c-17.728 0-32 14.272-32 32s14.272 32 32 32h192c17.728 0 32-14.272 32-32s-14.272-32-32-32zm0 96c-17.728 0-32 14.272-32 32s14.272 32 32 32h192c17.728 0 32-14.272 32-32s-14.272-32-32-32zm0 96c-17.728 0-32 14.272-32 32s14.272 32 32 32h192c17.728 0 32-14.272 32-32s-14.272-32-32-32z"/> 
</svg>
