<svg width="64" height="37" version="1.1" viewBox="0 0 128 74" xmlns="http://www.w3.org/2000/svg">
	<path fill="#fff" fill-opacity=".05" fill-rule="evenodd" d="m-5.4688-10.592 11.9 0.55664 5.4688 10.598-6.4316 10.041-10.938-0.51172v3.3438l8.8848 0.41992-8.8848 13.852v6.7344l8.3594 7.2344-8.3594 2.8984v3.5l7.6367-2.6484-7.6367 11.893v6.123l0.015625-0.023437 11.898 0.55664 5.4687 10.598-6.418 10.02h3.9316l4.2402-6.6016 3.4102 6.6016h3.7305l-10.547-20.439 18.246 0.85547-3.7637 19.584h3.3672l3.4609-18.02 9.3047 8.0664-1.9121 9.9531h3.3301l1.8027-9.3398 13.449-4.6621 9.3086 8.0527-17.156 5.9492h10.094l6.3379-2.1973-1.4102 2.1973h3.8848l1.8164-2.832 3.2715 2.832h5.0527l-5.4375-4.7051 11.639-4.0234 10.086 8.7285h38.436l-11.9-0.55664-5.4688-10.598 6.4336-10.041 10.936 0.51172v-3.3438l-8.8867-0.41992 8.8867-13.855v-6.7598l-8.334-7.209 8.334-2.8906v-3.5l-7.6094 2.6387 7.6094-11.85v-6.1406l-11.887-0.55664-5.4688-10.598 6.418-10.016h-3.9356l-4.2363 6.5977-3.4082-6.5977h-3.7266l10.543 20.434-18.246-0.85352 3.7637-19.58h-3.3672l-3.4609 18.016-9.3047-8.0684 1.9102-9.9473h-3.3574l-1.8027 9.3398-13.449 4.6621-9.3086-8.0527 17.156-5.9492h-10.094l-6.3379 2.1973 1.4102-2.1973h-3.8848l-1.8164 2.832-3.2715-2.832h-5.0527l5.4375 4.7051-11.639 4.0254-10.086-8.7305h-38.436zm128.56 0 10.379 0.48633v-0.48633h-10.379zm-112.84 0.73633 18.246 0.85352-4.832 25.143-13.414-25.996zm21.312 2.418 9.3027 8.0664-2.6855 13.98-11.629 4.0332 5.0117-26.08zm26.01 4.043 9.3086 8.0547-25.092 8.7012 2.3359-12.092 13.447-4.6641zm27.402 5.2734 10.762 9.3164-2.3203 12.088-20.08-17.379 11.639-4.0254zm-71.318 2.1016 8.3828 16.227-24.189 8.3867 15.807-24.613zm56.791 3.7949 19.357 16.756-29.219-1.3809 9.8613-15.375zm-4.2891 0.63672-15.807 24.613-8.3828-16.227 24.189-8.3867zm36.057 4.0371 29.221 1.3809-9.8633 15.373-19.357-16.754zm-3.6113 1.248 20.08 17.379-11.637 4.0254-10.764-9.3164 2.3203-12.088zm-61.145 4.666-5.0117 26.08-9.3047-8.0664 2.6855-13.98 11.631-4.0332zm2.8867 2.502 13.412 25.996-18.244-0.85352 4.832-25.143zm-18.129 2.7793-2.334 12.092-13.449 4.6641-9.3086-8.0547 25.092-8.7012zm36.32 2.7578 11.898 0.55664 5.4688 10.598-6.4316 10.041-11.9-0.55664-5.4688-10.598 6.4336-10.041zm15.715 0.73633 18.244 0.85352-4.832 25.143-13.412-25.996zm21.311 2.418 9.3047 8.0664-2.6856 13.98-11.631 4.0332 5.0117-26.08zm26.01 4.043 9.3086 8.0547-25.092 8.6992 2.3359-12.09 13.447-4.6641zm-100.58 5.2949 10.764 9.3145-2.3223 12.09-20.08-17.381 11.639-4.0234zm56.668 2.0801 8.3828 16.227-24.189 8.3867 15.807-24.613zm-71.193 3.8164 19.357 16.756-29.221-1.3828 9.8633-15.373zm123.7 0.61523-15.807 24.613-8.3828-16.229 24.189-8.3848zm-91.957 4.0625 29.221 1.3809-9.8633 15.375-19.357-16.756zm-3.6094 1.248 20.08 17.381-11.639 4.0234-10.764-9.3164 2.3223-12.088zm66.867 4.6406-5.0117 26.08-9.3047-8.0664 2.6855-13.98 11.631-4.0332zm2.8867 2.502 13.412 25.996-18.244-0.85352 4.832-25.143zm-18.127 2.7793-2.3359 12.092-13.447 4.6641-9.3086-8.0547 25.092-8.7012zm-91.684 23.463v0.49024h10.492l-10.492-0.49024z"/>
</svg>
