<svg width="96" height="96" version="1.1" viewBox="0 0 128 128" xmlns="http://www.w3.org/2000/svg">
	<g transform="translate(-9.7077 -11.491)" fill="none" stroke="hsl(210, 20%, 28%)" stroke-opacity="1" stroke-width="1">
		<g>
			<path d="m13.247 4.4827-15.695 15.178 20.759 10.56 10.9-9.6256z"/>
			<path d="m29.211 20.595 16.067-16.204 15.964 16.11-15.526 14.784z"/>
			<path d="m85.668-3.0708-24.427 23.572 17.493 13.007 14.761-13.71z"/>
			<path d="m117.3-2.9866-23.804 22.785 15.505 17.554 16.551-17.692z"/>
			<path d="m141.25 4.4827-15.695 15.178 20.759 10.56 10.9-9.6256z"/>
			<path d="m18.311 30.221-14.478 15.261 9.1235 24.06 22.355-22.532z"/>
			<path d="m45.715 35.286-10.404 11.725 16.593 14.443 11.509-12.82z"/>
			<path d="m78.734 33.508-15.321 15.126 14.697 17.872 19.155-20.013z"/>
			<path d="m109 37.353-11.735 9.1393 18.954 14.845 15.613-15.855z"/>
			<path d="m146.31 30.221-14.478 15.261 9.1235 24.06 22.355-22.532z"/>
			<path d="m13.247 132.48-15.695 15.178 20.759 10.56 10.9-9.6256z"/>
			<path d="m29.211 148.6 16.067-16.204 15.964 16.11-15.526 14.784z"/>
			<path d="m85.668 124.93-24.427 23.572 17.493 13.007 14.761-13.71z"/>
			<path d="m117.3 125.01-23.804 22.785 15.505 17.554 16.551-17.692z"/>
			<path d="m141.25 132.48-15.695 15.178 20.759 10.56 10.9-9.6256z"/>
			<path d="m2.8314 109.94 12.039-12.618 22.227 11.747-23.851 23.418z"/>
			<path d="m-3.029 85.478 15.986-15.936 16.157 15.379-14.243 12.397z"/>
			<path d="m130.83 109.94 12.039-12.618 22.227 11.747-23.851 23.418z"/>
			<path d="m124.97 85.478 15.986-15.936 16.157 15.379-14.243 12.397z"/>
			<path d="m114.69 94.011-18.587 17.89 21.199 13.113 13.532-15.077z"/>
			<path d="m116.22 61.337-18.379 17.173 16.846 15.502 10.283-8.5331z"/>
			<path d="m78.11 66.505-13.437 12.874 16.691 16.763 16.477-17.632z"/>
			<path d="m81.364 96.142 14.736 15.759-10.433 13.028-22.739-11.691z"/>
			<path d="m53.515 92.963-16.418 16.102 8.1794 23.326 17.652-19.152z"/>
			<path d="m51.905 61.454-22.791 23.468 24.402 8.0411 11.158-13.583z"/>
		</g>
		<g>
			<path d="m-18.114 114.93 7.4135 10.083-0.27169 16.07 8.5238 6.5766 17.815-2.9722-2.1196-12.205 7.7029-23.377-18.118 0.83068z"/>
			<path d="m-15.006 53.378 18.839-7.897 15.784 0.088-6.6608 23.972 0.49005 14.381-16.476 1.5555-14.034-4.2497 5.2832-19.892z"/>
			<path d="m109.88-13.07 7.4135 10.083-0.27169 16.07 8.5238 6.5766 17.815-2.9722-2.1196-12.205 7.7029-23.377-18.118 0.83068z"/>
			<path d="m141.45 83.922 1.4238 13.395 6.0794 11.787 16.148-0.0404 13.356 1.074 3.0612-17.176-3.0915-14.807-21.311 6.7656z"/>
			<path d="m143.37 16.688 13.844 3.907 18.626-5.1152-2.1217 19.806 1.4041 15.614-11.808-3.8893-15.694-1.4407-1.3065-15.349z"/>
			<path d="m50.453-17.861-5.1769 22.252 2.5597 11.089 13.404 5.0211 24.936-7.667-0.50887-15.905-1.9745-15.391-20.764 3.7006z"/>
			<path d="m78.909 81.264 2.4538 14.879 2.329 13.396 12.407 2.3628 13.786 3.0293 4.8017-20.919-3.7512-12.783-13.095-2.7189z"/>
			<path d="m13.445 83.923 1.4238 13.395 6.0794 11.787 16.148-0.0404 13.356 1.074 3.0612-17.176-3.0915-14.807-21.311 6.7656z"/>
			<path d="m86.175 12.835-7.4425 20.674 4.8354 12.082 13.696 0.9022 15.728 6.8865-3.9938-16.026 8.0272-24.269-23.532 6.7146z"/>
			<path d="m47.118 50.9 16.294-2.2662 20.157-3.0436-5.4594 20.915 0.80033 14.758-28.487-3.1075z"/>
			<path d="m15.365 16.689 13.844 3.907 18.626-5.1152-2.1217 19.806 1.4041 15.614-11.808-3.8893-15.694-1.4407-1.3065-15.349z"/>
			<path d="m-18.115-13.069 7.4135 10.083-0.27169 16.07 8.5238 6.5766 17.815-2.9722-2.1196-12.205 7.7029-23.377-18.118 0.83068z"/>
			<path d="m109.89 114.93 7.4135 10.083-0.27169 16.07 8.5238 6.5766 17.815-2.9722-2.1196-12.205 7.7029-23.377-18.118 0.83068z"/>
			<path d="m50.453 110.14-5.1769 22.252 2.5597 11.089 13.404 5.0211 24.936-7.667-0.50887-15.905-1.9745-15.391-20.764 3.7006z"/>
			<path d="m112.99 53.38 18.839-7.897 15.784 0.088-6.6608 23.972 0.49005 14.381-16.476 1.5555-14.034-4.2497 5.2832-19.892z"/>
		</g>
		<g>
			<path d="m94.961-30.804 1.6231 30.26 20.716-2.4425 15.455 0.14857-1.9226-15.226-3.8755-12.733-12.268-3.1915z"/>
			<path d="m35.904-34.546 1.1941 15.611-1.3678 16.458 9.5472 6.8681 21.564-6.4605-3.9128-12.692 6.8527-20.333-16.266 0.0566z"/>
			<path d="m-33.039 97.194 1.6231 30.26 20.716-2.4425 15.455 0.14857-1.9226-15.226-3.8755-12.733-12.268-3.1915z"/>
			<path d="m-29.888 30.338-0.65277 16.43 1.178 15.269 17.583-0.70186 8.6966 8.3934 6.9167-24.248 1.8841-16.563-24.717 8.4337z"/>
			<path d="m132.75 125.16-7.2024 22.498 8.1656 9.2586 12.594 1.3018 12.608 5.4948-1.7086-15.12 6.5194-23.072-22.483 6.9597z"/>
			<path d="m66.84 125.93-5.6009 22.57 3.6127 10.728 13.881 2.2788 19.377-3.1684-4.616-10.541 3.0886-20.343-10.916-2.5266z"/>
			<path d="m4.7515 125.16-7.2024 22.498 8.1655 9.2586 12.594 1.3018 12.608 5.4948-1.7086-15.12 6.5194-23.072-22.483 6.9597z"/>
			<path d="m157.95 66.804-16.992 2.736-16.04 0.18788 0.0546 15.748 1.9848 11.725 15.915 0.11522 21.033-3.8641-6.7906-8.5325z"/>
			<path d="m132.76-2.8402-7.2024 22.498 8.1656 9.2586 12.594 1.3018 12.608 5.4948-1.7086-15.12 6.5194-23.072-22.483 6.9597z"/>
			<path d="m94.964 97.19 1.6231 30.26 20.716-2.4425 15.455 0.14857-1.9226-15.226-3.8755-12.733-12.268-3.1915z"/>
			<path d="m35.906 93.448 1.1941 15.611-1.3678 16.458 9.5472 6.8681 21.564-6.4605-3.9128-12.692 6.8527-20.333-16.266 0.0566z"/>
			<path d="m60.996 69.38 3.6806 9.9936 5.1086 13.527 11.583 3.2361 13.596 1.054 2.8804-18.687 0.79536-16.471-20.526 4.4668z"/>
			<path d="m29.952 66.8-16.992 2.736-16.04 0.18788 0.054587 15.748 1.9849 11.725 15.915 0.11522 21.033-3.8641-6.7906-8.5325z"/>
			<path d="m98.114 30.334-0.65277 16.43 1.178 15.269 17.583-0.70186 8.6966 8.3934 6.9167-24.248 1.8841-16.563-24.717 8.4337z"/>
			<path d="m30.922 35.71 14.796-0.42996 19.138-4.0565-1.4405 17.404-2.4207 20.752-9.0879-7.9322-21.955 5.3524 5.3625-19.796z"/>
			<path d="m66.844-2.0751-5.6009 22.57 3.6127 10.728 13.881 2.2788 19.377-3.1684-4.616-10.541 3.0886-20.343-10.916-2.5266z"/>
			<path d="m4.7565-2.8438-7.2024 22.498 8.1655 9.2586 12.594 1.3018 12.608 5.4948-1.7086-15.12 6.5194-23.072-22.483 6.9597z"/>
		</g>
	</g>
</svg>
