<svg width="100" height="100" version="1.1" viewBox="0 0 200 200" xmlns="http://www.w3.org/2000/svg">
	<path fill="white" fill-opacity="0.1" d="m7.5977-8e-5 4.7578 4.9824-12.355-1.6973v3.0273l13.525 1.8594-13.525 16.221v7.8613l11.77 14.342-11.77 1.873v3.0371l11.627-1.8496-11.551 19.051-0.0762-0.31055v6.6055l8.3828 7.1797-8.3828 0.46485v3.0059l9.3965-0.52149-9.3965 15.109v5.6816l11.016-17.713 1.5606 22.709-12.576 4e-3v2.998l12.5-2e-3 -0.79296 6.8477-11.707-6.7324v3.459l8.3047 4.7754-8.3047 1.0352v3.0234l9.6973-1.207-9.6973 13.395v5.1172l12.422-17.162 5.0508 15.533-17.473 4.3125v3.0898l17.795-4.3906-0.9336 18.199-16.861-11.586v3.6406l14.611 10.039-14.611 3.5664v3.0879l10.389-2.5352-10.389 6.9805v3.6133l16.771-11.266 0.36914 20.635-17.141-5.8789v3.1719l17.016 5.834-1.0918 7.4844h3.0312l1.0664-7.2988 8.6934-2.2637-8.2227 9.5625h3.957l6.7656-7.8711-0.47461 7.8711h3.0059l0.5332-8.8476 9.0254 8.8476h4.2871l-11.059-10.842 19.348-0.64649-3.9473 11.488h3.1719l3.9004-11.359 12.461 2.2305-13.768 9.1289h5.4277l11.104-7.3652 0.94336 7.3652h3.0234l-0.83984-6.5605 8.541 6.5605h4.9297l-12.012-9.2246 12.566-3.0313 1.6894 12.256h3.0273l-1.6543-12.008 17.635 5.1875-10.992 6.8203h5.6895l7.8027-4.8398 0.74414 4.8398h3.0352l-0.66992-4.3633 7.1953 4.3633h5.7812l-10.582-6.418 18.939-2.6895-0.0996 9.1074h3l0.10352-9.3574 8.0137-0.10742-6.377 9.4648h3.6191l4.4219-6.5644 0.47461 6.5644h3.0078l-0.53125-7.3457 8.0117 7.3457h4.4414l-10.365-9.502 19.539 0.0137-0.75391 9.4883h3.0098l0.78906-9.9473 10.205-4.1602-8.6875 14.107h3.5234l7.127-11.574-0.45117 11.574h3.0058l0.5293-13.631 5.4199 5.6758v-4.3457l-1.4434-1.5117 1.4434 0.49414v-3.1719l-3.4394-1.1797 3.4394-2.3105v-3.6133l-5.3438 3.5898-0.15039-6.6934 5.4941-1.3418v-3.0879l-5.4316 1.3262 0.82422-18.098 4.6074 3.166v-3.6406l-2.3789-1.6348 2.3789-0.58789v-3.0898l-2.3652 0.58398 2.3652-3.2676v-5.1172l-4.4746 6.1816 0.0274-17.816 4.4473-0.55273v-3.0234l-4.4277 0.55078 0.0918-8.8555 4.3359 2.4941v-3.459l-0.19531-0.11328h0.19531v-2.998h-3.1094l3.1094-5v-5.6816l-4.6719 7.5137-1.7207-21.748 6.3926-0.35351v-3.0059l-5.207 0.28906 5.0391-8.0781 0.16796 0.14453v-6.6055l-3.9941-16.256 3.9941-0.63477v-3.0371l-3.9453 0.62696 3.4883-17.398 0.45703 0.55664v-7.8613l-0.58007 0.69532-5.0098-19.543 5.5898 0.76757v-3.0273l-6.0449-0.83008 0.0957-2.4551h-3.0058l-0.10547 2.7324-11.035 4.5176 4.4648-7.25h-3.5234l-2.6465 4.2969 0.33985-4.2969h-3.0098l-0.57031 7.1973-7.8496-7.1973h-4.4414l8.2754 7.5859-15.473-3.6797-0.28321-3.9062h-3.0078l0.28125 3.8789-8.8848 1.625 3.707-5.5039h-3.6191l-1.7695 2.627 0.0293-2.627h-3l-0.0547 4.9746-8.2031-4.9746h-5.7812l11.35 6.8828-16.336 3.1484-1.5391-10.031h-3.0352l1.4941 9.7344-17.795-4.9238 7.7539-4.8106h-5.6895l-4.5957 2.8516-0.39258-2.8516h-3.0273l0.26562 1.9277-2.5098-1.9277h-4.9297l5.3691 4.123-12.432 0.87109-0.63867-4.9941h-3.0234l0.64453 5.0449-19.541-0.50196 6.8496-4.543h-5.4277l-3.3574 2.2266 0.76367-2.2266h-3.1719l-1.0938 3.1856-3.248-3.1856h-4.2871l4.2305 4.1465-13.98-0.96094 0.19141-3.1856h-3.0059l-0.19727 3.2891-10.33 1.6406 4.2363-4.9297h-3.957l-1.8516 2.1543 0.31445-2.1543h-3.0312l-0.55469 3.7949-3.623-3.7949zm183.78 5.7969 4.7539 18.543-16.984-13.539zm-157.37 0.42773 14.582 1-10.385 13.473zm-3.1094 0.0469 3.9336 13.564-14.83-11.834zm121.51 0.66601-1.1211 14.35-8.4297-12.604zm3.0059 0.041 17.031 4.0508-18.268 11.787zm-63.285 0.0918-13.158 17.352 0.0547-16.434zm-36.564 0.45508 20.459 0.52734-0.0566 17.525zm44.418 0.66406 17.066 4.7246-1.1016 12.625zm-5.4024 0.61133 3.8691 16.764-17.752 1.5469zm-43.645 0.29296 5.7676 17.908-16.514-3.9648zm84.523 0.99415-16.482 15.232 1.0703-12.262zm-37.398 0.44531 15.197 16.516-11.73-1.4961zm-82.615 0.0195 2.6367 16.662-16.24-0.34961zm3.0508 0.0859 15.84 12.643-13.271 3.5879zm36.098 0.0332 18.947 16.768-13.504 0.13281zm86.555 0.85742 8.9863 13.428-12.262 4.416zm-3.0957 0.24805-3.3418 18.209-14.223-1.9785zm36.441 1.5-1.2031 16.193-17.141-4.3594zm3.0039 0.0469 17.484 13.936-18.695 2.3848zm-135.85 13.148 15.818 3.7988 0.23047 15.381zm-8.9375 0.35547-15.102 15.568 3.4512-12.42zm6.1367 0.9707 16.551 19.777-17.578-3.4238zm-3.0137 0.11914-1.0098 16.096-16.277 1.7246zm120.73 0.39453 16.537 4.2051-0.71094 14.791zm-57.764 0.23243-0.0273 19.453-17.965-17.885zm50.219 4e-3 -9.416 15.818-1.9844-11.713zm-47.219 0.0625 12.602 1.6074-12.627 16.865zm-99.875 1.2578 15.961 0.3418-3.9668 14.27zm152.33 0.35743 14.803 17.773-13.943-4.9258zm39.949 0.1582-18.828 17.273 0.7207-14.965zm-120.06 0.0488-13.436 15.475-0.23047-15.34zm77.135 0.1914 0.83203 12.443-10.039 3.0215zm-29.506 0.5879 12.863 1.791 1.9707 11.621zm-43.459 0.65039 18.02 17.938-21.807-1.6504zm40.252 0.49414 15.76 14.25-16.07-1.8652zm77.76 0.15234-3.3926 16.926-15.311 0.23438zm-80.795 1.2109-0.2832 11.266-10.893 3.6621zm-40.898 0.72656-3.1602 13.596-8.8418 0.22657zm77.627 11.709 0.61914 17.154-11.475-13.887zm3.0078 0.15235 15.49 5.4726-14.834 12.725zm-120.42 0.7207 1.1309 17.549-17.842-15.779zm3.0176 0.1875 18.045 3.5137-16.895 14.309zm80.219 0.52539 16.6 1.9258-17.785 12.314zm-3.0508 0.47852-1.1367 13.662-10.723-9.6758zm-99.279 2.4766 18.576 16.424-20.816 3.2656zm55.824 0.3457 2.7344 8.625-10.818-8.4199zm3.1894 0.13477 20.209 1.5273-16.887 8.9434zm62.816 0.1289 1.7246 15.963-20.227-3.1504zm-77.643 0.98047 12.941 10.07-16.838 0.15625zm133.05 0.14649 3.9551 16.098-19.156-15.863zm-52.156 1.0137 10.756 13.018-9.25 0.94336zm32.197 0.33398 4.3281 11.896-18.668 0.4043zm-72.039 0.4961 10.43 9.4121-13.607 0.60742zm-88.666 0.01364-1.8672 16.426-8.2559 0.27344zm85.402 0.35156-3.0527 9.6211-12.475-1.3984zm-41.943 0.125-3.0488 8.0039-9.1191 2.3008zm121.21 1.1445 16.178 13.396-12.551-3.418zm-103.77 9.4414-18.871 16.889 0.91797-16.721zm7.2266 0.33594 13.898 1.5586 1.9238 19.75zm-28.209 0.29883-0.87695 15.939-10.965-12.951zm60.117 0.66211-13.008 21.01-1.9805-20.34zm6.8848 0.5332 20.25 3.1523-0.0937 18.092zm-43.84 0.24414-1.1855 15.127-17.246 1.3711zm2.9707 0.49805 15.727 21.176-16.902-6.1699zm38.084 0.67968 20.824 21.947-21.848-0.68555zm61.484 0.0605-0.29297 14.766-18.811-14.353zm2.9922 0.41797 15 4.0859-15.287 10.377zm-29.123 0.37305-9.4024 16.877 0.082-15.926zm3.9824 1.0703 18.391 14.033-19.426-1.3926zm-42.443 0.21875-0.91992 19.154-11.346 0.6621zm-82.994 0.0332-16.762 10.094-0.25781-7.4238zm5.5449 0.16406-1.6191 15.818-18.092-3.9492zm2.9316 0.82618 10.967 12.955-12.504 2.0625zm-28.488 1.9512 0.22266 6.3906-7.1875-6.1582zm142.12 0.73437-0.75391 9.2227-6.6992 4.1582zm41.984 3.3516-3.3672 5.3984-5.7949 0.82032zm-120.2 7.7559 1.7637 19.754-19.824-18.318zm-56.971 0.5586 16.717 3.6484-0.92382 10.873zm60.037 0.0469 17.99 6.5684-16.213 13.355zm77.775 0.0293 20.932 1.502-15.93 18.68zm35.52 0.10547 1.5547 19.658-10.662-18.371zm-38.432 0.61133 4.4766 18.066-13.332-12.568zm-138.24 0.20898 17.646 16.227-16.059 6.8594zm34.289 0.90235-12.08 11.881 0.85157-10.029zm3.7188 0.55078 6.2774 20.445-21.021-5.9453zm3.7754 2.0742 18.74 17.316-12.932 1.6055zm121.49 0.28515-1.3496 16.178-13.096 0.75976zm2.9805 0.36133 10.963 18.891-12.305-2.8242zm-64.414 1.584 20.967 0.65625-17.527 13.912zm-3.0801 0.01 3.0469 12.908-13.76-12.283zm28.93 2.041 13.635 12.857-17.094-1.1797zm-42.186 0.33399 13.355 11.924-14.35-3.541zm-3.0801 0.49414-0.92383 7.7969-11.762 2.6524zm41.734 0.5332-3.0566 10.311-11.67 1.3789zm-42.844 10.381-0.45508 17.041-13.938-13.795zm3 0.0156 16.68 4.1152-17.143 13.287zm-64.902 0.0234 4.1074 21.041-21.438-5.3301zm5.9395 0.0703 19.506 5.5176-1.8418 12.645zm-2.541 1.6894 17.971 18.475-14.125 1.2207zm-10.062 0.23438-11.807 10.703 0.68945-5.9531zm111.09 0.88086 17.936 1.2383-17.174 15.422zm-2.998 0.0664 0.72852 15.953-14.004-14.383zm40.842 0.47852-1.4316 17.691-12.043-16.91zm2.9883 0.25195 12.668 2.9082-14.09 14.672zm-105.03 0.7168-13.455 12.953 1.6738-11.49zm2.873 1.3984 0.39453 15.631-15.389-1.1973zm3.0078 0.24805 13.549 13.41-13.164 1.873zm39.52 0.18164 13.918 14.293-17.508-3.0078zm38.342 0.48438-1.5137 11.242-13.709 2.4316zm3.0098 0.12109 11.125 15.617-12.656-4.2383zm-44.914 0.69531-3.1113 9.7832-11.006 1.1602zm77.238 1.959-0.0859 8.293-11.812 4.0976zm-174.65 9.8203 19.428 4.8281-3.6055 10.439zm93.873 1.0644-0.6543 18.971-12.324-17.602zm2.998 0.0977 18.908 3.248-19.6 16.799zm77.676 0.49219-0.0273 18.244-14.318-13.268zm-36.592 0.01 2.877 14.484-17.719-11.85zm3.1602 0.50977 13.367 4.4805-10.529 9.8184zm-142.9 0.27344 14.289 13.787-10.002-0.60742zm76.379 0.79101-11.936 14.521-0.70703-12.723zm-30.363 0.75586 14.723 1.1445 0.71875 12.963zm-9.8809 0.16016-14.998 10.08 3.127-9.0566zm42.811 0.68554 1.5273 11.832-13.48 2.7129zm-36.225 0.20899 17.068 15.594-20.881 2.9102zm-3.1465 0.40625-3.6758 17.83-14.432-5.6582zm82.375 0.48047 19.16 12.814-23.275 5.5859zm-39.691 1.1309 9.6172 13.736-8.3535-3.9434zm36.258 0.48046-3.8457 17.195-14.652-1.3418zm39.688 1.4024 1.9961 9.6621-11.777-0.53906zm3.3457 1.3672 11.334 10.504-9.5566-1.9023zm-156.95 8.3359 10.811 0.65625-11.65 15.756zm76.039 1.0469-0.0391 18.828-14.539-15.893zm2.998 0.53125 10.355 4.8867-10.393 12.98zm63.826 0.80078 12.859 0.58789-2.6797 17.053zm-124.62 0.35742 12.559 4.9238-1.0137 9.7773zm-3.4473 0.4668 13.584 17.299-15.701 4.9473zm143.9 0.11719 11.49 2.2852-14.115 14.436zm-23.906 0.27343-22.441 20.193 0.36523-14.895zm3.6602 0.74219-1.0293 15.758-21.51 4.5215zm-126.8 0.22461-1.9746 20.752-9.9707-4.5957zm40.541 0.87695-19.475 12.846 1.0645-10.279zm6.8281 0.32618 14.756 16.129-20.877-1.8613zm82.346 0.0254 9.5273 16.51-10.463-2.1758zm-86.158 1.2539-5.4922 12.795-13.84-0.043zm40.191 0.7168 14.312 1.3086-0.35156 14.334zm76.121 0.77344-0.78125 17.182-13.791-2.2774zm-80.18 0.29492 4.5508 10.867-14.883 2.0391zm5.25 4.7715 7.8906 8.8418-5.2852-2.6211zm-0.27539 9.0645-2.4609 21.328-13.697-19.115zm-61.828 0.12695 14.939 0.0469 2.9336 18.139zm18.006 0.2168 21.545 1.9199-18.418 17.426zm87.404 0.0684 10.785 2.2441-15.658 14.285zm-40.623 0.13281 9.1973 4.5586-11.457 15.01zm37.426 0.10351-5.4395 18.451-17.082-13.717zm-110.36 0.97852-12.959 15.098-0.82226-10.756zm3.9102 0.0488 4.9434 16.502-19.67 0.66016zm-28.588 0.58008 7.8789 3.6328 0.69336 9.0371zm-2.666 1.4121 10.734 15.865-10.402 2.709zm35.078 0.31836 16.15 16.436-11.865-2.125zm125.71 0.29688 10.906 1.7988 0.14257 6.3418zm-81.781 0.0703 13.141 18.338-17.416-5.123zm74.826 0.40821 2.498 15.424-19.391-0.0137zm3.1055 0.41015 13.422 9.8926-11.088 4.5215zm-81.68 1.0195-3.5996 11.119-10.943 2.6387zm36.271 1.168 6.8926 13.287-19.104 2.7148zm4.8516 2.834 12.496 10.033-7.2422 0.0977zm-136.2 10.179v4.3457l7.5977 7.9551h4.1484z"/>
</svg>
