<?xml version="1.0" encoding="UTF-8" standalone="no"?>
<!-- Created with Inkscape (http://www.inkscape.org/) -->

<svg
   xmlns:dc="http://purl.org/dc/elements/1.1/"
   xmlns:cc="http://creativecommons.org/ns#"
   xmlns:rdf="http://www.w3.org/1999/02/22-rdf-syntax-ns#"
   xmlns:svg="http://www.w3.org/2000/svg"
   xmlns="http://www.w3.org/2000/svg"
   xmlns:sodipodi="http://sodipodi.sourceforge.net/DTD/sodipodi-0.dtd"
   xmlns:inkscape="http://www.inkscape.org/namespaces/inkscape"
   width="32"
   height="32"
   viewBox="0 0 32.000002 32"
   version="1.1"
   id="svg8"
   sodipodi:docname="Nouveau document 1.2019_08_04_18_45_34.0.svg"
   inkscape:version="0.92.3 (2405546, 2018-03-11)">
  <defs
     id="defs2" />
  <sodipodi:namedview
     id="base"
     pagecolor="#ffffff"
     bordercolor="#666666"
     borderopacity="1.0"
     inkscape:pageopacity="0.0"
     inkscape:pageshadow="2"
     inkscape:zoom="1"
     inkscape:cx="16.000201"
     inkscape:cy="76.000201"
     inkscape:document-units="px"
     inkscape:current-layer="layer1"
     showgrid="false"
     inkscape:snap-smooth-nodes="true"
     units="px"
     inkscape:window-width="1400"
     inkscape:window-height="991"
     inkscape:window-x="-8"
     inkscape:window-y="0"
     inkscape:window-maximized="0"
     showguides="false">
    <inkscape:grid
       type="xygrid"
       id="grid814"
       empspacing="8" />
  </sodipodi:namedview>
  <metadata
     id="metadata5">
    <rdf:RDF>
      <cc:Work
         rdf:about="">
        <dc:format>image/svg+xml</dc:format>
        <dc:type
           rdf:resource="http://purl.org/dc/dcmitype/StillImage" />
        <dc:title />
      </cc:Work>
    </rdf:RDF>
  </metadata>
  <g
     inkscape:label="Calque 1"
     inkscape:groupmode="layer"
     id="layer1">
    <path
       d="m 15,0 c -4.056968,-0.05737563 -4.056968,6.0573756 0,6 h 6.757812 L 10.878906,16.878906 c -2.9449059,2.827527 1.414661,7.187094 4.242188,4.242188 L 26,10.242188 V 17 c -0.05738,4.056968 6.057376,4.056968 6,0 V 3 C 31.999834,1.3432144 30.656786,1.6565372e-4 29,0 Z M 6,12 h 5 c 4.056968,0.05738 4.057374,-6 0,-6 H 3 C 1.3432143,6.0001656 1.6565373e-4,7.3432143 0,9 v 20 c 1.6500002e-4,1.656786 1.343214,2.999834 3,3 h 20 c 1.656786,-1.66e-4 2.999835,-1.343214 3,-3 v -8 c 0.02869,-2.028484 -1.485655,-3.042969 -3,-3.042969 -1.514345,0 -3.02869,1.014485 -3,3.042969 v 5 H 6 Z"
       id="path4711"
       inkscape:connector-curvature="0"
       sodipodi:nodetypes="cccccccccccccscccccccscccc" />
  </g>
</svg>
